HIERARCHY
ROOT hip
{
  OFFSET 0 90.174 2.4664
  CHANNELS 6 Xposition Yposition Zposition Zrotation Xrotation Yrotation
  JOINT abdomen
  {
    OFFSET 0 -1.186 -1.5018
    CHANNELS 6 Xposition Yposition Zposition Zrotation Xrotation Yrotation
    JOINT abdomen2
    {
      OFFSET 0 9.964 0.2134
      CHANNELS 6 Xposition Yposition Zposition Zrotation Xrotation Yrotation
      JOINT chest
      {
        OFFSET 0 13.134 -3.2573
        CHANNELS 6 Xposition Yposition Zposition Zrotation Xrotation Yrotation
        JOINT neck
        {
          OFFSET 0 20.686 -1.6905
          CHANNELS 6 Xposition Yposition Zposition Zrotation Xrotation Yrotation
          JOINT head
          {
            OFFSET 0 7.238 -0.1237
            CHANNELS 6 Xposition Yposition Zposition Zrotation Xrotation Yrotation
            End Site
            {
              OFFSET 0 0 0
            }
          }
        }
        JOINT lCollar
        {
          OFFSET 1.7069 20.075 5.0056
          CHANNELS 6 Xposition Yposition Zposition Zrotation Xrotation Yrotation
          JOINT lShldr
          {
            OFFSET 13.6458 -0.047 -4.849
            CHANNELS 6 Xposition Yposition Zposition Zrotation Xrotation Yrotation
            JOINT lForeArm
            {
              OFFSET 28.3255 -0.9759 2.2888
              CHANNELS 6 Xposition Yposition Zposition Zrotation Xrotation Yrotation
              JOINT lHand
              {
                OFFSET 22.1583 -0.53 10.8316
                CHANNELS 6 Xposition Yposition Zposition Zrotation Xrotation Yrotation
                JOINT lThumb1
                {
                  OFFSET 0.786 0.112 2.5817
                  CHANNELS 6 Xposition Yposition Zposition Zrotation Xrotation Yrotation
                  JOINT lThumb2
                  {
                    OFFSET 0.3601 -0.878 4.2331
                    CHANNELS 6 Xposition Yposition Zposition Zrotation Xrotation Yrotation
                    JOINT lThumb2_End
                    {
                      OFFSET 1.8127 -1.216 2.2227
                      CHANNELS 6 Xposition Yposition Zposition Zrotation Xrotation Yrotation
                      End Site
                      {
                        OFFSET 0.0181 -0.0122 0.0222
                      }
                    }
                  }
                }
                JOINT lCarpal1
                {
                  OFFSET 0.9571 1.114 1.7695
                  CHANNELS 6 Xposition Yposition Zposition Zrotation Xrotation Yrotation
                  JOINT lIndex1
                  {
                    OFFSET 4.1246 0.487 4.1451
                    CHANNELS 6 Xposition Yposition Zposition Zrotation Xrotation Yrotation
                    JOINT lIndex2
                    {
                      OFFSET 3.4052 -1.454 2.7682
                      CHANNELS 6 Xposition Yposition Zposition Zrotation Xrotation Yrotation
                      JOINT lIndex2_End
                      {
                        OFFSET 1.4531 -1.795 1.2713
                        CHANNELS 6 Xposition Yposition Zposition Zrotation Xrotation Yrotation
                        End Site
                        {
                          OFFSET 0.0145 -0.0179 0.0127
                        }
                      }
                    }
                  }
                  JOINT lMid1
                  {
                    OFFSET 5.6954 0.21 2.1184
                    CHANNELS 6 Xposition Yposition Zposition Zrotation Xrotation Yrotation
                    JOINT lMid2
                    {
                      OFFSET 3.9766 -1.54 2.3863
                      CHANNELS 6 Xposition Yposition Zposition Zrotation Xrotation Yrotation
                      JOINT lMid2_End
                      {
                        OFFSET 1.4042 -1.926 1.125
                        CHANNELS 6 Xposition Yposition Zposition Zrotation Xrotation Yrotation
                        End Site
                        {
                          OFFSET 0.014 -0.0193 0.0113
                        }
                      }
                    }
                  }
                }
                JOINT lCarpal2
                {
                  OFFSET 2.0956 0.66 -0.3894
                  CHANNELS 6 Xposition Yposition Zposition Zrotation Xrotation Yrotation
                  JOINT lRing1
                  {
                    OFFSET 5.0395 -0.09 2.4971
                    CHANNELS 6 Xposition Yposition Zposition Zrotation Xrotation Yrotation
                    JOINT lRing2
                    {
                      OFFSET 3.7921 -1.552 1.4806
                      CHANNELS 6 Xposition Yposition Zposition Zrotation Xrotation Yrotation
                      JOINT lRing2_End
                      {
                        OFFSET 1.4655 -1.808 0.9609
                        CHANNELS 6 Xposition Yposition Zposition Zrotation Xrotation Yrotation
                        End Site
                        {
                          OFFSET 0.0147 -0.0181 0.0096
                        }
                      }
                    }
                  }
                  JOINT lPinky1
                  {
                    OFFSET 4.9141 -1.269 0.3591
                    CHANNELS 6 Xposition Yposition Zposition Zrotation Xrotation Yrotation
                    JOINT lPinky2
                    {
                      OFFSET 3.1477 -1.685 0.8462
                      CHANNELS 6 Xposition Yposition Zposition Zrotation Xrotation Yrotation
                      JOINT lPinky2_End
                      {
                        OFFSET 0.8055 -1.585 0.7955
                        CHANNELS 6 Xposition Yposition Zposition Zrotation Xrotation Yrotation
                        End Site
                        {
                          OFFSET 0.0081 -0.0158 0.008
                        }
                      }
                    }
                  }
                }
              }
            }
          }
        }
        JOINT rCollar
        {
          OFFSET -1.7069 20.075 5.0056
          CHANNELS 6 Xposition Yposition Zposition Zrotation Xrotation Yrotation
          JOINT rShldr
          {
            OFFSET -13.6458 -0.047 -4.849
            CHANNELS 6 Xposition Yposition Zposition Zrotation Xrotation Yrotation
            JOINT rForeArm
            {
              OFFSET -28.3255 -0.9759 2.2888
              CHANNELS 6 Xposition Yposition Zposition Zrotation Xrotation Yrotation
              JOINT rHand
              {
                OFFSET -22.1583 -0.53 10.8316
                CHANNELS 6 Xposition Yposition Zposition Zrotation Xrotation Yrotation
                JOINT rThumb1
                {
                  OFFSET -0.786 0.112 2.5817
                  CHANNELS 6 Xposition Yposition Zposition Zrotation Xrotation Yrotation
                  JOINT rThumb2
                  {
                    OFFSET -0.3601 -0.878 4.2331
                    CHANNELS 6 Xposition Yposition Zposition Zrotation Xrotation Yrotation
                    JOINT rThumb2_End
                    {
                      OFFSET -1.8127 -1.216 2.2227
                      CHANNELS 6 Xposition Yposition Zposition Zrotation Xrotation Yrotation
                      End Site
                      {
                        OFFSET -0.0181 -0.0122 0.0222
                      }
                    }
                  }
                }
                JOINT rCarpal1
                {
                  OFFSET -0.9571 1.114 1.7695
                  CHANNELS 6 Xposition Yposition Zposition Zrotation Xrotation Yrotation
                  JOINT rIndex1
                  {
                    OFFSET -4.1246 0.487 4.1451
                    CHANNELS 6 Xposition Yposition Zposition Zrotation Xrotation Yrotation
                    JOINT rIndex2
                    {
                      OFFSET -3.4052 -1.454 2.7682
                      CHANNELS 6 Xposition Yposition Zposition Zrotation Xrotation Yrotation
                      JOINT rIndex2_End
                      {
                        OFFSET -1.4531 -1.795 1.2713
                        CHANNELS 6 Xposition Yposition Zposition Zrotation Xrotation Yrotation
                        End Site
                        {
                          OFFSET -0.0145 -0.018 0.0127
                        }
                      }
                    }
                  }
                  JOINT rMid1
                  {
                    OFFSET -5.6954 0.21 2.1184
                    CHANNELS 6 Xposition Yposition Zposition Zrotation Xrotation Yrotation
                    JOINT rMid2
                    {
                      OFFSET -3.9766 -1.54 2.3863
                      CHANNELS 6 Xposition Yposition Zposition Zrotation Xrotation Yrotation
                      JOINT rMid2_End
                      {
                        OFFSET -1.4042 -1.926 1.125
                        CHANNELS 6 Xposition Yposition Zposition Zrotation Xrotation Yrotation
                        End Site
                        {
                          OFFSET -0.014 -0.0193 0.0113
                        }
                      }
                    }
                  }
                }
                JOINT rCarpal2
                {
                  OFFSET -2.0956 0.66 -0.3894
                  CHANNELS 6 Xposition Yposition Zposition Zrotation Xrotation Yrotation
                  JOINT rRing1
                  {
                    OFFSET -5.0395 -0.09 2.4971
                    CHANNELS 6 Xposition Yposition Zposition Zrotation Xrotation Yrotation
                    JOINT rRing2
                    {
                      OFFSET -3.7921 -1.552 1.4806
                      CHANNELS 6 Xposition Yposition Zposition Zrotation Xrotation Yrotation
                      JOINT rRing2_End
                      {
                        OFFSET -1.4655 -1.808 0.9609
                        CHANNELS 6 Xposition Yposition Zposition Zrotation Xrotation Yrotation
                        End Site
                        {
                          OFFSET -0.0147 -0.0181 0.0096
                        }
                      }
                    }
                  }
                  JOINT rPinky1
                  {
                    OFFSET -4.9141 -1.269 0.3592
                    CHANNELS 6 Xposition Yposition Zposition Zrotation Xrotation Yrotation
                    JOINT rPinky2
                    {
                      OFFSET -3.1477 -1.685 0.8462
                      CHANNELS 6 Xposition Yposition Zposition Zrotation Xrotation Yrotation
                      JOINT rPinky2_End
                      {
                        OFFSET -0.8055 -1.585 0.7955
                        CHANNELS 6 Xposition Yposition Zposition Zrotation Xrotation Yrotation
                        End Site
                        {
                          OFFSET -0.0081 -0.0158 0.008
                        }
                      }
                    }
                  }
                }
              }
            }
          }
        }
      }
    }
  }
  JOINT lThigh
  {
    OFFSET 8.367 -8.2066 0.5982
    CHANNELS 6 Xposition Yposition Zposition Zrotation Xrotation Yrotation
    JOINT lShin
    {
      OFFSET 2.1923 -43.463 -0.4932
      CHANNELS 6 Xposition Yposition Zposition Zrotation Xrotation Yrotation
      JOINT lFoot
      {
        OFFSET 0.7333 -45.8593 -2.6451
        CHANNELS 6 Xposition Yposition Zposition Zrotation Xrotation Yrotation
        End Site
        {
          OFFSET 2.6618 -4.2699 12.3931
        }
      }
    }
  }
  JOINT rThigh
  {
    OFFSET -8.367 -8.2066 0.5982
    CHANNELS 6 Xposition Yposition Zposition Zrotation Xrotation Yrotation
    JOINT rShin
    {
      OFFSET -2.1923 -43.463 -0.4931
      CHANNELS 6 Xposition Yposition Zposition Zrotation Xrotation Yrotation
      JOINT rFoot
      {
        OFFSET -0.7333 -45.8593 -2.6451
        CHANNELS 6 Xposition Yposition Zposition Zrotation Xrotation Yrotation
        End Site
        {
          OFFSET -2.6618 -4.2699 12.3931
        }
      }
    }
  }
}
MOTION
Frames:	4
Frame Time:	0.0333333
0 90.174 2.4664 0 0 -0 0 -1.186 -1.5018 0 0 -0 0 9.964 0.2134 0 0 -0 0 13.134 -3.2573 0 0 -0 0 20.686 -1.6905 0 0 -0 0 7.238 -0.1237 0 0 -0 1.7069 20.075 5.0056 0 0 -0 13.6458 -0.047 -4.849 1.66051 0.0835086 5.75766 28.3255 -0.9759 2.2888 -0.0175111 0.895433 15.7816 22.1583 -0.53 10.8316 7.95139e-016 -1.98785e-016 -0 0.786 0.112 2.5817 5.46658e-016 -3.97569e-016 -0 0.3601 -0.878 4.2331 5.96354e-016 0 -0 1.8127 -1.216 2.2227 3.97569e-016 1.98785e-016 9.54166e-015 0.9571 1.114 1.7695 1.49089e-016 -3.97569e-016 -0 4.1246 0.487 4.1451 6.4605e-016 0 3.18055e-015 3.4052 -1.454 2.7682 5.96354e-016 0 3.18055e-015 1.4531 -1.795 1.2713 8.94531e-016 -1.98785e-016 6.36111e-015 5.6954 0.21 2.1184 6.4605e-016 0 3.18055e-015 3.9766 -1.54 2.3863 5.96354e-016 0 3.18055e-015 1.4042 -1.926 1.125 8.94531e-016 -1.98785e-016 6.36111e-015 2.0956 0.66 -0.3894 1.49089e-016 -3.97569e-016 -0 5.0395 -0.09 2.4971 6.4605e-016 0 3.18055e-015 3.7921 -1.552 1.4806 5.96354e-016 0 3.18055e-015 1.4655 -1.808 0.9609 8.94531e-016 -1.98785e-016 6.36111e-015 4.9141 -1.269 0.3591 6.4605e-016 0 3.18055e-015 3.1477 -1.685 0.8462 5.96354e-016 0 3.18055e-015 0.8055 -1.585 0.7955 8.94531e-016 -1.98785e-016 6.36111e-015 -1.7069 20.075 5.0056 0 0 -0 -13.6458 -0.047 -4.849 -1.4496 0.0636048 -5.0245 -28.3255 -0.9759 2.2888 -1.74811 1.20616 -16.8394 -22.1583 -0.53 10.8316 -1.19271e-015 1.98785e-016 -3.18055e-015 -0.786 0.112 2.5817 -3.97569e-016 1.98785e-016 -3.18055e-015 -0.3601 -0.878 4.2331 -2.98177e-016 1.98785e-016 -3.18055e-015 -1.8127 -1.216 2.2227 -2.98177e-016 3.97569e-016 -0 -0.9571 1.114 1.7695 4.96962e-016 0 -6.36111e-015 -4.1246 0.487 4.1451 -9.93923e-017 3.97569e-016 -0 -3.4052 -1.454 2.7682 -8.94531e-016 5.96354e-016 -0 -1.4531 -1.795 1.2713 -3.97569e-016 3.97569e-016 -0 -5.6954 0.21 2.1184 -9.93923e-017 3.97569e-016 -0 -3.9766 -1.54 2.3863 -8.94531e-016 5.96354e-016 -0 -1.4042 -1.926 1.125 -3.97569e-016 3.97569e-016 -0 -2.0956 0.66 -0.3894 4.96962e-016 0 -6.36111e-015 -5.0395 -0.09 2.4971 -9.93923e-017 3.97569e-016 -0 -3.7921 -1.552 1.4806 -8.94531e-016 5.96354e-016 -0 -1.4655 -1.808 0.9609 -3.97569e-016 3.97569e-016 -0 -4.9141 -1.269 0.3592 -9.93923e-017 3.97569e-016 -0 -3.1477 -1.685 0.8462 -8.94531e-016 5.96354e-016 -0 -0.8055 -1.585 0.7955 -3.97569e-016 3.97569e-016 -0 8.367 -8.2066 0.5982 -4.66115 -1.03232 0.120763 2.1923 -43.463 -0.4932 0.00990601 1.55097 0.177175 0.7333 -45.8593 -2.6451 4.65196 -0.54114 -0.255042 -8.367 -8.2066 0.5982 4.66115 -1.03222 -0.120763 -2.1923 -43.463 -0.4931 -0.00990459 1.5509 -0.177176 -0.7333 -45.8593 -2.6451 -4.65196 -0.541171 0.255041 
-9.50593 2.05612 15.2304 96.6586 -0.148901 -167.902 -4.44089e-016 -1.186 -1.5018 0.452417 4.80509 -0.452529 0 9.964 0.2134 0.948082 9.60629 -0.9483 0 13.134 -3.2573 0.948093 9.60628 -0.948305 -4.44089e-016 20.686 -1.6905 0.175485 -10.191 -0.0153238 2.22045e-016 7.238 -0.1237 -1.58326e-006 2.42534 1.01786e-006 1.7069 20.075 5.0056 -8.74771 -26.4071 -0.893242 13.6458 -0.047 -4.849 -61.14 22.5154 -40.0626 28.3255 -0.9759 2.2888 -39.3722 7.35179 4.34008 22.1583 -0.53 10.8316 -34.3682 24.9541 -10.4369 0.786 0.112 2.5817 -2.57968e-006 7.93468e-007 3.9587e-006 0.3601 -0.878 4.2331 -2.57968e-006 7.93468e-007 3.95869e-006 1.8127 -1.216 2.2227 -1.78906e-015 3.18055e-015 -3.27995e-015 0.9571 1.114 1.7695 -2.18663e-015 -3.18055e-015 3.77691e-015 4.1246 0.487 4.1451 -2.57968e-006 7.93468e-007 3.9587e-006 3.4052 -1.454 2.7682 -2.57968e-006 7.93468e-007 3.95869e-006 1.4531 -1.795 1.2713 -5.96354e-016 0 -3.57812e-015 5.6954 0.21 2.1184 -2.57968e-006 7.93468e-007 3.9587e-006 3.9766 -1.54 2.3863 -2.57968e-006 7.93468e-007 3.95869e-006 1.4042 -1.926 1.125 -5.96354e-016 0 -3.57812e-015 2.0956 0.66 -0.3894 -2.18663e-015 -3.18055e-015 3.77691e-015 5.0395 -0.09 2.4971 -2.57968e-006 7.93468e-007 3.9587e-006 3.7921 -1.552 1.4806 -2.57968e-006 7.93468e-007 3.95869e-006 1.4655 -1.808 0.9609 -5.96354e-016 0 -3.57812e-015 4.9141 -1.269 0.3591 -2.57968e-006 7.93468e-007 3.9587e-006 3.1477 -1.685 0.8462 -2.57968e-006 7.93468e-007 3.95869e-006 0.8055 -1.585 0.7955 -5.96354e-016 0 -3.57812e-015 -1.7069 20.075 5.0056 -11.2161 -27.5773 5.57148 -13.6458 -0.047 -4.849 54.1677 3.4016 53.3598 -28.3255 -0.9759 2.2888 58.3262 -3.3154 55.7618 -22.1583 -0.53 10.8316 38.2521 12.1095 5.89082 -0.786 0.112 2.5817 -4.77083e-015 4.77083e-015 -3.97569e-016 -0.3601 -0.878 4.2331 -4.77083e-015 3.18055e-015 -7.95139e-016 -1.8127 -1.216 2.2227 -3.18055e-015 3.18055e-015 -0 -0.9571 1.114 1.7695 -3.18055e-015 1.59028e-015 -0 -4.1246 0.487 4.1451 -4.77083e-015 7.95139e-015 1.19271e-014 -3.4052 -1.454 2.7682 -1.59028e-015 3.18055e-015 -0 -1.4531 -1.795 1.2713 -1.59028e-015 3.18055e-015 -0 -5.6954 0.21 2.1184 -4.77083e-015 7.95139e-015 1.19271e-014 -3.9766 -1.54 2.3863 -1.59028e-015 3.18055e-015 -0 -1.4042 -1.926 1.125 -1.59028e-015 3.18055e-015 -0 -2.0956 0.66 -0.3894 -3.18055e-015 1.59028e-015 -0 -5.0395 -0.09 2.4971 -4.77083e-015 7.95139e-015 1.19271e-014 -3.7921 -1.552 1.4806 -1.59028e-015 3.18055e-015 -0 -1.4655 -1.808 0.9609 -1.59028e-015 3.18055e-015 -0 -4.9141 -1.269 0.3592 -4.77083e-015 7.95139e-015 1.19271e-014 -3.1477 -1.685 0.8462 -1.59028e-015 3.18055e-015 -0 -0.8055 -1.585 0.7955 -1.59028e-015 3.18055e-015 -0 8.367 -8.2066 0.5982 7.6254 -12.0671 10.2299 2.1923 -43.463 -0.4932 0.378351 61.9009 -2.67376 0.7333 -45.8593 -2.6451 3.06619 46.9669 1.31494 -8.367 -8.2066 0.5982 -29.7798 -41.1649 -21.7386 -2.1923 -43.463 -0.4931 89.6511 22.9787 -96.4946 -0.7333 -45.8593 -2.6451 5.21566 29.5277 -2.2982 
-9.58201 8.80666 13.3905 89.6582 -0.192421 178.646 0 -1.186 -1.5018 0.420527 4.05956 -0.40368 -1.77636e-015 9.964 0.2134 0.873084 8.11593 -0.840484 0 13.134 -3.2573 0.873083 8.11593 -0.84048 0 20.686 -1.6905 1.13686 -6.44636 -0.117437 0 7.238 -0.1237 -2.40352e-006 3.79046 8.75008e-007 1.7069 20.075 5.0056 -8.60645 -22.8166 -2.31711 13.6458 -0.047 -4.849 -57.9093 21.02 -34.9813 28.3255 -0.9759 2.2888 -32.7206 8.79257 -0.946478 22.1583 -0.53 10.8316 -34.2854 23.369 -8.81519 0.786 0.112 2.5817 -2.20695e-032 3.18055e-015 3.97569e-016 0.3601 -0.878 4.2331 0 0 -3.97569e-015 1.8127 -1.216 2.2227 3.18055e-015 0 4.37326e-015 0.9571 1.114 1.7695 -2.20695e-032 3.18055e-015 3.97569e-016 4.1246 0.487 4.1451 1.59028e-015 -3.18055e-015 2.38542e-015 3.4052 -1.454 2.7682 3.97252e-031 6.36111e-015 -3.57812e-015 1.4531 -1.795 1.2713 -1.59028e-015 3.18055e-015 -7.55382e-015 5.6954 0.21 2.1184 1.59028e-015 -3.18055e-015 2.38542e-015 3.9766 -1.54 2.3863 3.97252e-031 6.36111e-015 -3.57812e-015 1.4042 -1.926 1.125 -1.59028e-015 3.18055e-015 -7.55382e-015 2.0956 0.66 -0.3894 -2.20695e-032 3.18055e-015 3.97569e-016 5.0395 -0.09 2.4971 1.59028e-015 -3.18055e-015 2.38542e-015 3.7921 -1.552 1.4806 3.97252e-031 6.36111e-015 -3.57812e-015 1.4655 -1.808 0.9609 -1.59028e-015 3.18055e-015 -7.55382e-015 4.9141 -1.269 0.3591 1.59028e-015 -3.18055e-015 2.38542e-015 3.1477 -1.685 0.8462 3.97252e-031 6.36111e-015 -3.57812e-015 0.8055 -1.585 0.7955 -1.59028e-015 3.18055e-015 -7.55382e-015 -1.7069 20.075 5.0056 -11.3806 -24.3148 2.6413 -13.6458 -0.047 -4.849 50.909 4.18043 49.2089 -28.3255 -0.9759 2.2888 53.9264 -3.63626 51.2443 -22.1583 -0.53 10.8316 36.7664 10.6814 5.84507 -0.786 0.112 2.5817 -1.59028e-015 -3.18055e-015 -1.59028e-015 -0.3601 -0.878 4.2331 -1.65521e-032 -4.77083e-015 -1.98785e-016 -1.8127 -1.216 2.2227 1.59028e-015 -3.18055e-015 -1.19271e-015 -0.9571 1.114 1.7695 -2.75869e-032 -1.59028e-015 -9.93923e-016 -4.1246 0.487 4.1451 9.76577e-031 -4.77083e-015 1.17283e-014 -3.4052 -1.454 2.7682 1.59028e-015 0 5.96354e-016 -1.4531 -1.795 1.2713 -1.59028e-015 -1.59028e-015 -1.98785e-016 -5.6954 0.21 2.1184 9.76577e-031 -4.77083e-015 1.17283e-014 -3.9766 -1.54 2.3863 1.59028e-015 0 5.96354e-016 -1.4042 -1.926 1.125 -1.59028e-015 -1.59028e-015 -1.98785e-016 -2.0956 0.66 -0.3894 -2.75869e-032 -1.59028e-015 -9.93923e-016 -5.0395 -0.09 2.4971 9.76577e-031 -4.77083e-015 1.17283e-014 -3.7921 -1.552 1.4806 1.59028e-015 0 5.96354e-016 -1.4655 -1.808 0.9609 -1.59028e-015 -1.59028e-015 -1.98785e-016 -4.9141 -1.269 0.3592 9.76577e-031 -4.77083e-015 1.17283e-014 -3.1477 -1.685 0.8462 1.59028e-015 0 5.96354e-016 -0.8055 -1.585 0.7955 -1.59028e-015 -1.59028e-015 -1.98785e-016 8.367 -8.2066 0.5982 6.83584 -9.71299 9.35341 2.1923 -43.463 -0.4932 -0.283142 56.1811 -0.999967 0.7333 -45.8593 -2.6451 4.02607 43.6352 -0.388889 -8.367 -8.2066 0.5982 -25.5945 -38.8124 -19.3531 -2.1923 -43.463 -0.4931 83.0537 28.2319 -94.8605 -0.7333 -45.8593 -2.6451 4.08897 27.0422 -1.34768 
-9.64371 8.6154 12.7665 89.1434 -0.277984 178.295 1.77636e-015 -1.186 -1.5018 0.424996 3.67009 -0.395032 0 9.964 0.2134 0.878047 7.33705 -0.819926 1.77636e-015 13.134 -3.2573 0.878048 7.33705 -0.819928 0 20.686 -1.6905 2.05268 -3.58744 -0.26268 -1.77636e-015 7.238 -0.1237 -5.73212e-006 5.22574 -2.19921e-006 1.7069 20.075 5.0056 -9.01747 -21.1467 -3.69042 13.6458 -0.047 -4.849 -57.7754 20.1191 -33.5027 28.3255 -0.9759 2.2888 -28.8271 10.126 -6.71915 22.1583 -0.53 10.8316 -36.4258 23.2904 -7.79637 0.786 0.112 2.5817 -2.38542e-015 -1.59028e-015 -4.17448e-015 0.3601 -0.878 4.2331 4.85427e-007 -5.47679e-007 -8.50989e-007 1.8127 -1.216 2.2227 -4.85427e-007 5.47679e-007 8.50989e-007 0.9571 1.114 1.7695 -2.38542e-015 0 -4.17448e-015 4.1246 0.487 4.1451 -0 0 1.51076e-014 3.4052 -1.454 2.7682 4.85427e-007 -5.47679e-007 -8.50989e-007 1.4531 -1.795 1.2713 -4.85427e-007 5.47679e-007 8.50989e-007 5.6954 0.21 2.1184 -0 0 1.51076e-014 3.9766 -1.54 2.3863 4.85427e-007 -5.47679e-007 -8.50989e-007 1.4042 -1.926 1.125 -4.85427e-007 5.47679e-007 8.50989e-007 2.0956 0.66 -0.3894 -2.38542e-015 0 -4.17448e-015 5.0395 -0.09 2.4971 -0 0 1.51076e-014 3.7921 -1.552 1.4806 4.85427e-007 -5.47679e-007 -8.50989e-007 1.4655 -1.808 0.9609 -4.85427e-007 5.47679e-007 8.50989e-007 4.9141 -1.269 0.3591 -0 0 1.51076e-014 3.1477 -1.685 0.8462 4.85427e-007 -5.47679e-007 -8.50989e-007 0.8055 -1.585 0.7955 -4.85427e-007 5.47679e-007 8.50989e-007 -1.7069 20.075 5.0056 -12.0175 -22.9987 0.372446 -13.6458 -0.047 -4.849 51.1906 4.70801 49.0814 -28.3255 -0.9759 2.2888 54.1676 -2.84385 51.4722 -22.1583 -0.53 10.8316 37.9268 10.0277 5.90476 -0.786 0.112 2.5817 3.18055e-015 1.19271e-014 5.96354e-016 -0.3601 -0.878 4.2331 6.36111e-015 1.19271e-014 1.98785e-016 -1.8127 -1.216 2.2227 6.36111e-015 1.35174e-014 -0 -0.9571 1.114 1.7695 1.59028e-015 -7.95139e-016 7.95139e-016 -4.1246 0.487 4.1451 3.18055e-015 8.74653e-015 1.25234e-014 -3.4052 -1.454 2.7682 1.59028e-015 1.11319e-014 1.98785e-016 -1.4531 -1.795 1.2713 6.36111e-015 1.19271e-014 -3.97569e-016 -5.6954 0.21 2.1184 3.18055e-015 8.74653e-015 1.25234e-014 -3.9766 -1.54 2.3863 1.59028e-015 1.11319e-014 1.98785e-016 -1.4042 -1.926 1.125 6.36111e-015 1.19271e-014 -3.97569e-016 -2.0956 0.66 -0.3894 1.59028e-015 -7.95139e-016 7.95139e-016 -5.0395 -0.09 2.4971 3.18055e-015 8.74653e-015 1.25234e-014 -3.7921 -1.552 1.4806 1.59028e-015 1.11319e-014 1.98785e-016 -1.4655 -1.808 0.9609 6.36111e-015 1.19271e-014 -3.97569e-016 -4.9141 -1.269 0.3592 3.18055e-015 8.74653e-015 1.25234e-014 -3.1477 -1.685 0.8462 1.59028e-015 1.11319e-014 1.98785e-016 -0.8055 -1.585 0.7955 6.36111e-015 1.19271e-014 -3.97569e-016 8.367 -8.2066 0.5982 6.81734 -8.94354 9.28022 2.1923 -43.463 -0.4932 -0.442243 55.4681 -0.888063 0.7333 -45.8593 -2.6451 4.0358 43.6149 -0.392822 -8.367 -8.2066 0.5982 -25.652 -38.3393 -19.1902 -2.1923 -43.463 -0.4931 83.0771 28.235 -94.9027 -0.7333 -45.8593 -2.6451 4.31242 26.9245 -0.825617 
